PathFileType	4	(X/Y/Z)	D:\TRACE\spot_10-12-23\spot_arm_motion_2_5-platform.trc
DataRate	CameraRate	NumFrames	NumMarkers	Units	OrigDataRate	OrigDataStartFrame	OrigNumFrames
100.00	100.00	      32	5	mm	100.00	1	      7000
Frame#	Time	Left_Front			Right_Front			Left_Aft			Right_Aft			Post			
		X1	Y1	Z1	X2	Y2	Z2	X3	Y3	Z3	X4	Y4	Z4	X5	Y5	Z5	

1	0.000	-780.73071	6.20572	-641.56281	791.60706	10.76391	-634.92493	-697.81256	5.39606	496.39896	719.34290	9.80595	582.28851	1.92570	743.92535	-959.49597	
2	0.010	-780.74762	6.11051	-641.55957	791.43378	10.76865	-635.04303	-697.81653	5.34014	496.39996	719.33527	9.83941	582.28729	1.95783	743.86035	-959.51337	
3	0.020	-780.68884	6.16644	-641.54529	791.69464	10.80838	-634.82086	-697.79871	5.34443	496.39624	719.34222	9.83974	582.29480	1.99422	743.86066	-959.65186	
4	0.030	-780.66364	6.16780	-641.55438	791.69904	10.85210	-634.90045	-697.78046	5.40385	496.39627	719.34204	9.85144	582.33472	1.94201	743.86530	-959.76605	
5	0.040	-780.70441	6.26561	-641.55151	791.51495	10.92653	-635.03424	-697.77997	5.44539	496.42825	719.35010	9.83559	582.28351	1.95299	743.95831	-959.91687	
6	0.050	-780.75092	6.26848	-641.54688	791.50012	10.91176	-635.04846	-697.80292	5.41965	496.41095	719.35730	9.81022	582.30261	1.85523	744.01025	-959.97644	
7	0.060	-780.68024	6.18353	-641.56079	791.48889	10.86706	-635.00592	-697.81183	5.32460	496.42950	719.38971	9.78797	582.32813	1.79339	743.98096	-959.93213	
8	0.070	-780.71051	6.15771	-641.53369	791.64117	10.89925	-634.84058	-697.83929	5.28462	496.41284	719.38049	9.77265	582.31812	1.85296	743.97089	-959.82904	
9	0.080	-780.69556	6.21658	-641.52966	791.56915	10.88802	-634.97235	-697.80164	5.33986	496.42828	719.35565	9.81076	582.29919	1.91381	743.98053	-959.72095	
10	0.090	-780.67346	6.21582	-641.55219	791.68762	10.89525	-634.89630	-697.78442	5.41936	496.41229	719.33618	9.82250	582.30566	1.94486	743.96167	-959.54791	
11	0.100	-780.70190	6.19506	-641.60413	791.70007	10.84511	-634.91138	-697.76385	5.46859	496.42902	719.36884	9.86319	582.27026	2.00621	743.95215	-959.44739	
12	0.110	-780.66119	6.15235	-641.57312	791.49402	10.80056	-635.01019	-697.83759	5.40924	496.38104	719.37457	9.83416	582.28839	1.99977	743.92883	-959.32013	
13	0.120	-780.74274	6.14133	-641.56110	791.49646	10.77616	-634.98596	-697.86969	5.37577	496.38361	719.33124	9.81527	582.29205	1.97162	743.87561	-959.30383	
14	0.130	-780.72394	6.12061	-641.54950	791.68555	10.79410	-634.84747	-697.82959	5.34909	496.36719	719.34198	9.85727	582.31519	2.01526	743.90991	-959.31458	
15	0.140	-780.71045	6.22573	-641.57117	791.69305	10.85056	-634.87665	-697.75391	5.35959	496.39905	718.78284	9.28667	582.40112	1.99347	743.95563	-959.42944	
16	0.150	-780.77216	6.30186	-641.55414	791.70026	10.91696	-634.88696	-697.68207	5.35117	496.46716	719.34277	9.79146	582.47797	1.90667	744.02869	-959.55347	
17	0.160	-780.73645	6.34714	-641.55664	791.67865	10.87494	-634.91211	-697.87933	5.39882	496.41693	719.35785	9.79712	582.51520	1.92973	744.07056	-959.63672	
18	0.170	-780.72198	6.21948	-641.55304	791.66290	10.87314	-634.89594	-697.91315	5.34460	496.42096	719.36096	9.79611	582.53546	1.92715	744.01746	-959.71436	
19	0.180	-780.74017	6.14260	-641.52350	791.53107	10.86648	-634.96533	-697.94080	5.31301	496.43085	719.37537	9.82424	582.55670	1.91994	743.95526	-959.76636	
20	0.190	-780.71881	6.15761	-641.55243	791.72156	10.81949	-634.84442	-697.88733	5.36365	496.40924	719.38275	9.87095	582.52728	1.97584	743.89417	-959.79236	
21	0.200	-780.66876	6.16491	-641.55884	791.50696	10.84304	-635.03229	-697.86981	5.43590	496.41367	719.37579	9.83780	582.50165	1.96170	743.86346	-959.81897	
22	0.210	-780.66827	6.17042	-641.56427	791.68689	10.83066	-634.94049	-697.83289	5.46195	496.40372	719.38062	9.83633	582.48120	1.89642	743.93726	-959.83124	
23	0.220	-780.75488	6.21659	-641.56635	791.70374	10.83165	-634.90070	-697.83191	5.42819	496.41272	719.36798	9.84573	582.50745	1.90469	743.90686	-959.71875	
24	0.230	-780.71497	6.12372	-641.51337	791.49445	10.82303	-635.04022	-697.86969	5.42044	496.40356	719.21045	9.68362	582.51105	1.95109	743.89880	-959.65314	
25	0.240	-780.75299	6.18459	-641.51581	791.52362	10.85578	-634.98590	-697.89752	5.33555	496.41519	719.21655	9.70768	582.56500	1.95487	743.92175	-959.64655	
26	0.250	-780.73260	6.19477	-641.53033	791.65588	10.82668	-634.89813	-697.83856	5.37303	496.40427	719.27985	9.73984	582.56915	1.96306	743.98242	-959.57794	
27	0.260	-780.70221	6.24509	-641.54962	791.56750	10.95111	-635.00104	-697.89160	5.37735	496.42108	719.36371	9.78681	582.53149	1.93631	744.01141	-959.57043	
28	0.270	-780.66028	6.24253	-641.53778	791.74646	10.88409	-634.87750	-697.87592	5.43784	496.41916	719.38458	9.81355	582.54077	1.96608	744.02234	-959.50208	
29	0.280	-780.68591	6.22093	-641.52039	791.72131	10.86517	-634.89124	-697.94281	5.40875	496.43994	719.37683	9.82799	582.54913	1.93245	743.97131	-959.46942	
30	0.290	-780.69452	6.19653	-641.55157	791.49603	10.79263	-635.01825	-697.95782	5.38270	496.41522	719.31744	9.83262	582.54279	1.95094	743.89966	-959.40936	
31	0.300	-780.71692	6.16461	-641.56525	791.68756	10.79976	-634.87506	-697.93604	5.40649	496.38913	719.31451	9.85478	582.55652	1.98568	743.88739	-959.38800	
32	0.310	-780.64600	6.15133	-641.57166	791.67920	10.81454	-634.91138	-697.87073	5.37746	496.39218	719.36511	9.82126	582.53833	2.01404	743.89648	-959.48187	
